<svg width="65" height="79" viewBox="0 0 65 79" fill="none" xmlns="http://www.w3.org/2000/svg">
<mask id="path-1-inside-1_1672_10325" fill="white">
<path d="M32.5026 39.5078C34.4158 39.5078 36.0486 38.8316 37.401 37.4792C38.7535 36.1267 39.4297 34.4939 39.4297 32.5807C39.4297 30.6675 38.7535 29.0347 37.401 27.6823C36.0486 26.3299 34.4158 25.6536 32.5026 25.6536C30.5894 25.6536 28.9566 26.3299 27.6042 27.6823C26.2517 29.0347 25.5755 30.6675 25.5755 32.5807C25.5755 34.4939 26.2517 36.1267 27.6042 37.4792C28.9566 38.8316 30.5894 39.5078 32.5026 39.5078ZM32.6016 78.8932C32.1398 78.8932 31.7109 78.8273 31.3151 78.6953C30.9193 78.5634 30.5564 78.3655 30.2266 78.1016C20.3967 69.4592 13.0408 61.4436 8.15885 54.0547C3.27691 46.6658 0.835938 39.7717 0.835938 33.3724C0.835938 23.4766 4.0191 15.5929 10.3854 9.72135C16.7517 3.84983 24.1241 0.914062 32.5026 0.914062C40.8811 0.914062 48.2535 3.84983 54.6198 9.72135C60.9861 15.5929 64.1693 23.4766 64.1693 33.3724C64.1693 39.7717 61.7283 46.6658 56.8464 54.0547C51.9644 61.4436 44.6085 69.4592 34.7786 78.1016C34.4488 78.3655 34.1024 78.5634 33.7396 78.6953C33.3767 78.8273 32.9974 78.8932 32.6016 78.8932Z"/>
</mask>
<path d="M32.5026 39.5078C34.4158 39.5078 36.0486 38.8316 37.401 37.4792C38.7535 36.1267 39.4297 34.4939 39.4297 32.5807C39.4297 30.6675 38.7535 29.0347 37.401 27.6823C36.0486 26.3299 34.4158 25.6536 32.5026 25.6536C30.5894 25.6536 28.9566 26.3299 27.6042 27.6823C26.2517 29.0347 25.5755 30.6675 25.5755 32.5807C25.5755 34.4939 26.2517 36.1267 27.6042 37.4792C28.9566 38.8316 30.5894 39.5078 32.5026 39.5078ZM32.6016 78.8932C32.1398 78.8932 31.7109 78.8273 31.3151 78.6953C30.9193 78.5634 30.5564 78.3655 30.2266 78.1016C20.3967 69.4592 13.0408 61.4436 8.15885 54.0547C3.27691 46.6658 0.835938 39.7717 0.835938 33.3724C0.835938 23.4766 4.0191 15.5929 10.3854 9.72135C16.7517 3.84983 24.1241 0.914062 32.5026 0.914062C40.8811 0.914062 48.2535 3.84983 54.6198 9.72135C60.9861 15.5929 64.1693 23.4766 64.1693 33.3724C64.1693 39.7717 61.7283 46.6658 56.8464 54.0547C51.9644 61.4436 44.6085 69.4592 34.7786 78.1016C34.4488 78.3655 34.1024 78.5634 33.7396 78.6953C33.3767 78.8273 32.9974 78.8932 32.6016 78.8932Z" fill="white"/>
<path d="M30.2266 78.1016L28.2457 80.3546L28.298 80.4006L28.3525 80.4442L30.2266 78.1016ZM34.7786 78.1016L36.6527 80.4442L36.7072 80.4006L36.7595 80.3546L34.7786 78.1016ZM32.5026 42.5078C35.2112 42.5078 37.6071 41.5157 39.5224 39.6005L35.2797 35.3578C34.4901 36.1475 33.6204 36.5078 32.5026 36.5078V42.5078ZM39.5224 39.6005C41.4376 37.6853 42.4297 35.2893 42.4297 32.5807H36.4297C36.4297 33.6985 36.0694 34.5682 35.2797 35.3578L39.5224 39.6005ZM42.4297 32.5807C42.4297 29.8722 41.4376 27.4762 39.5224 25.561L35.2797 29.8036C36.0694 30.5932 36.4297 31.4629 36.4297 32.5807H42.4297ZM39.5224 25.561C37.6071 23.6457 35.2112 22.6536 32.5026 22.6536V28.6536C33.6204 28.6536 34.4901 29.014 35.2797 29.8036L39.5224 25.561ZM32.5026 22.6536C29.794 22.6536 27.3981 23.6457 25.4828 25.561L29.7255 29.8036C30.5151 29.014 31.3848 28.6536 32.5026 28.6536V22.6536ZM25.4828 25.561C23.5676 27.4762 22.5755 29.8722 22.5755 32.5807H28.5755C28.5755 31.4629 28.9359 30.5932 29.7255 29.8036L25.4828 25.561ZM22.5755 32.5807C22.5755 35.2893 23.5676 37.6853 25.4828 39.6005L29.7255 35.3578C28.9359 34.5682 28.5755 33.6985 28.5755 32.5807H22.5755ZM25.4828 39.6005C27.3981 41.5157 29.794 42.5078 32.5026 42.5078V36.5078C31.3848 36.5078 30.5151 36.1475 29.7255 35.3578L25.4828 39.6005ZM32.6016 75.8932C32.428 75.8932 32.3229 75.869 32.2638 75.8493L30.3664 81.5414C31.099 81.7855 31.8515 81.8932 32.6016 81.8932V75.8932ZM32.2638 75.8493C32.2079 75.8306 32.1577 75.8046 32.1006 75.759L28.3525 80.4442C28.9552 80.9263 29.6306 81.2961 30.3664 81.5414L32.2638 75.8493ZM32.2074 75.8485C22.4918 67.3066 15.3453 59.4894 10.6619 52.4009L5.65585 55.7085C10.7363 63.3978 18.3016 71.6118 28.2457 80.3546L32.2074 75.8485ZM10.6619 52.4009C5.98383 45.3207 3.83594 38.998 3.83594 33.3724H-2.16406C-2.16406 40.5454 0.56999 48.0109 5.65585 55.7085L10.6619 52.4009ZM3.83594 33.3724C3.83594 24.1828 6.75928 17.1468 12.4193 11.9266L8.35153 7.51607C1.27892 14.039 -2.16406 22.7704 -2.16406 33.3724H3.83594ZM12.4193 11.9266C18.2522 6.54712 24.9054 3.91406 32.5026 3.91406V-2.08594C23.3429 -2.08594 15.2513 1.15253 8.35153 7.51607L12.4193 11.9266ZM32.5026 3.91406C40.0998 3.91406 46.753 6.54712 52.5859 11.9266L56.6537 7.51607C49.7539 1.15253 41.6623 -2.08594 32.5026 -2.08594V3.91406ZM52.5859 11.9266C58.2459 17.1468 61.1693 24.1828 61.1693 33.3724H67.1693C67.1693 22.7704 63.7263 14.039 56.6537 7.51607L52.5859 11.9266ZM61.1693 33.3724C61.1693 38.998 59.0214 45.3207 54.3433 52.4009L59.3494 55.7085C64.4352 48.0109 67.1693 40.5454 67.1693 33.3724H61.1693ZM54.3433 52.4009C49.6599 59.4894 42.5134 67.3066 32.7978 75.8485L36.7595 80.3546C46.7036 71.6118 54.2689 63.3978 59.3494 55.7085L54.3433 52.4009ZM32.9046 75.759C32.8059 75.8379 32.7427 75.8656 32.7144 75.8759L34.7648 81.5147C35.4622 81.2611 36.0917 80.893 36.6527 80.4442L32.9046 75.759ZM32.7144 75.8759C32.6884 75.8854 32.6567 75.8932 32.6016 75.8932V81.8932C33.3381 81.8932 34.0651 81.7692 34.7648 81.5147L32.7144 75.8759Z" fill="black" mask="url(#path-1-inside-1_1672_10325)"/>
</svg>
