<svg width="425" height="223" viewBox="0 0 425 223" fill="none" xmlns="http://www.w3.org/2000/svg">
<path d="M65.7254 86.119C42.8203 55.2292 68.0658 11.3798 105.98 16.8744L214.5 32.6011C219.631 33.3447 224.845 33.3092 229.965 32.496L325.594 17.3073C362.677 11.4174 389.188 52.268 368.704 83.7365C358.938 98.74 358.69 118.028 368.067 133.277L369.025 134.835C389.764 168.562 361.264 211.05 322.191 204.656L230.193 189.602C224.924 188.739 219.552 188.702 214.271 189.49L104.519 205.877C67.7297 211.371 42.9218 169.332 65.515 139.782C77.547 124.045 77.5095 102.011 65.7254 86.119Z" fill="#D9D9D9" fill-opacity="0.5" stroke="white" stroke-width="3"/>
<path d="M190.849 72.7534C200.733 81.2865 193.981 99.6958 192.808 112.701C191.164 130.936 194.059 153 180.355 153C166.055 153 168.7 129.227 165.337 110.56C163.165 98.5013 156.947 82.9702 165.62 74.316C168.859 71.084 173.172 70 180.355 70C185.589 70 188.696 70.895 190.849 72.7534Z" fill="#D9D9D9"/>
<path d="M258.849 72.7534C268.733 81.2865 261.981 99.6958 260.808 112.701C259.164 130.936 262.059 153 248.355 153C234.055 153 236.7 129.227 233.337 110.56C231.165 98.5013 224.947 82.9702 233.62 74.316C236.859 71.084 241.172 70 248.355 70C253.589 70 256.696 70.895 258.849 72.7534Z" fill="#D9D9D9"/>
</svg>
