<svg width="39" height="39" viewBox="0 0 39 39" fill="none" xmlns="http://www.w3.org/2000/svg">
<path d="M8.30334 2.93213L6.58734 4.64569L9.14062 7.19775L10.8542 5.48419L8.30334 2.93213ZM30.6979 2.93213L28.1446 5.48419L29.8594 7.19775L32.4114 4.64691L30.6979 2.93213ZM19.5 3.69263C19.0978 3.69588 18.6916 3.72188 18.2812 3.77063H18.2447C13.3014 4.33735 9.36731 8.33119 8.68359 13.2525C8.13759 17.2134 9.77072 20.8051 12.4922 23.1183C13.6052 24.0685 14.3582 25.3721 14.625 26.8111V34.1236H17.4037C17.8279 34.8512 18.6018 35.3423 19.5 35.3423C20.3982 35.3423 21.1721 34.8512 21.5962 34.1236H24.375V29.2486H24.4896V27.8007C24.4896 26.014 25.4182 24.2127 26.9271 22.8124C28.9453 20.7917 30.4688 17.9215 30.4688 14.6248C30.4688 8.60419 25.5133 3.63657 19.5 3.69263ZM19.5 6.13013C24.2105 6.06432 28.0312 9.92044 28.0312 14.6248C28.0312 17.1769 26.8491 19.4243 25.2123 21.0598L25.2513 21.0988C23.6254 22.5992 22.5737 24.6198 22.2775 26.8123H16.9467C16.6786 24.7234 15.7828 22.7015 14.09 21.2512C11.9364 19.423 10.6531 16.6687 11.0821 13.5584C11.6147 9.71935 14.7298 6.63225 18.5469 6.20935C18.8621 6.16564 19.1795 6.1396 19.4976 6.13135L19.5 6.13013ZM2.4375 14.6248V17.0623H6.09375V14.6248H2.4375ZM32.9062 14.6248V17.0623H36.5625V14.6248H32.9062ZM9.14062 24.4894L6.58856 27.0402L8.30334 28.755L10.853 26.2029L9.14062 24.4894ZM29.8594 24.4894L28.1458 26.2029L30.6967 28.755L32.4114 27.0402L29.8594 24.4894ZM17.0625 29.2498H21.9375V31.6873H17.0625V29.2498Z" fill="white"/>
</svg>
