<svg width="226" height="226" viewBox="0 0 226 226" fill="none" xmlns="http://www.w3.org/2000/svg">
<circle cx="113" cy="113" r="113" fill="black"/>
<path d="M82.3979 86.7848C84.6075 85.3327 87.2866 84.7754 89.892 85.2259C92.4973 85.6764 94.8338 87.101 96.4274 89.2107L96.8199 89.7703L107.353 105.802L127.683 95.4612C131.208 93.6682 135.255 93.1871 139.102 94.1041C142.949 95.0211 146.344 97.2762 148.681 100.466L149.162 101.162L149.883 102.258C154.637 109.495 156.388 118.297 154.765 126.801C153.143 135.306 148.275 142.845 141.191 147.823L140.329 148.409L137.983 149.95C132.978 153.238 127.18 155.117 121.198 155.389C115.216 155.661 109.271 154.316 103.989 151.495L102.958 150.921L80.0629 137.633C77.1627 135.95 75.8896 131.986 78.0249 128.864C80.6794 124.992 83.9466 122.446 88.6883 121.918C89.7204 121.805 90.795 121.787 91.9121 121.863L93.0495 121.963L79.4125 101.207C77.8959 98.8985 77.3585 96.0822 77.9183 93.3775C78.4782 90.6729 80.0896 88.3014 82.3979 86.7848ZM86.9726 93.7478C86.565 94.0153 86.2643 94.4174 86.1227 94.8838C85.981 95.3503 86.0075 95.8516 86.1975 96.3006L86.3755 96.6322L105.818 126.225C106.291 126.946 106.528 127.796 106.497 128.658C106.467 129.52 106.169 130.351 105.646 131.036C105.123 131.722 104.4 132.228 103.577 132.486C102.753 132.743 101.871 132.738 101.05 132.472L98.9634 131.815L97.0988 131.275C93.5768 130.314 91.2808 130.014 89.6124 130.198C88.6116 130.285 87.6604 130.672 86.8829 131.308L86.4377 131.7L107.142 143.717C111.007 145.959 115.404 147.125 119.872 147.091C124.341 147.058 128.719 145.826 132.551 143.526L133.408 142.988L135.755 141.446C141.16 137.895 144.978 132.388 146.407 126.081C147.837 119.775 146.766 113.16 143.421 107.626L142.92 106.833L142.199 105.736C141.137 104.118 139.544 102.921 137.694 102.35C135.844 101.779 133.853 101.869 132.064 102.607L131.459 102.884L111.131 113.229C109.405 114.107 107.427 114.357 105.537 113.935C103.647 113.513 101.963 112.446 100.775 110.917L100.39 110.377L89.857 94.3449C89.5536 93.8832 89.0794 93.5609 88.5384 93.449C87.9975 93.337 87.4342 93.4445 86.9726 93.7478ZM72.3991 113.291C73.3224 112.684 74.4489 112.469 75.5308 112.693C76.6126 112.917 77.5612 113.562 78.1678 114.485C78.7745 115.409 78.9895 116.535 78.7655 117.617C78.5416 118.699 77.897 119.647 76.9737 120.254L73.4922 122.541C72.5689 123.148 71.4423 123.363 70.3605 123.139C69.2786 122.915 68.33 122.27 67.7234 121.347C67.1168 120.424 66.9018 119.297 67.1257 118.215C67.3497 117.134 67.9942 116.185 68.9176 115.578L72.3991 113.291ZM111.889 82.3617C112.778 81.7797 113.854 81.5588 114.9 81.744C115.945 81.9292 116.88 82.5067 117.514 83.3583C118.148 84.21 118.433 85.2716 118.311 86.3263C118.188 87.3809 117.668 88.349 116.855 89.0327L116.464 89.3247L112.983 91.612C112.095 92.194 111.018 92.415 109.972 92.2297C108.927 92.0445 107.992 91.4671 107.358 90.6154C106.724 89.7637 106.439 88.7021 106.561 87.6475C106.684 86.5928 107.204 85.6247 108.017 84.941L108.408 84.649L111.889 82.3617ZM64.0941 95.2865L69.8629 96.4807C70.9284 96.7207 71.8571 97.3696 72.4489 98.2876C73.0407 99.2056 73.2483 100.319 73.0269 101.389C72.8054 102.459 72.1728 103.398 71.2652 104.006C70.3576 104.614 69.2476 104.841 68.1743 104.638L62.4055 103.444C61.3399 103.204 60.4112 102.555 59.8195 101.637C59.2277 100.719 59.0201 99.6049 59.2415 98.5354C59.4629 97.4658 60.0956 96.5259 61.0032 95.9183C61.9108 95.3106 63.0208 95.0838 64.0941 95.2865ZM102.39 70.1261C103.472 70.3501 104.42 70.9946 105.027 71.9178C105.633 72.8409 105.848 73.9672 105.625 75.0489L104.43 80.8177C104.328 81.3612 104.118 81.8788 103.813 82.3403C103.508 82.8019 103.114 83.198 102.655 83.5058C102.195 83.8135 101.679 84.0266 101.136 84.1326C100.593 84.2387 100.034 84.2356 99.4928 84.1234C98.9512 84.0113 98.4373 83.7925 97.9811 83.4796C97.525 83.1667 97.1357 82.7662 96.836 82.3013C96.5363 81.8364 96.3322 81.3164 96.2356 80.7718C96.139 80.2272 96.1518 79.6687 96.2734 79.1291L97.4675 73.3603C97.6916 72.2787 98.3361 71.3304 99.2592 70.7239C100.182 70.1174 101.309 69.9023 102.39 70.1261Z" fill="white"/>
<path d="M194.001 51.5005C284.002 244 -2.99895 277.501 19.5015 80.5004" stroke="white" stroke-width="3"/>
<path d="M170.129 48.2459C169.937 48.0846 169.816 47.8826 169.767 47.6399C169.733 47.4096 169.778 47.2203 169.902 47.0721L177.759 37.6893C177.908 37.5114 178.086 37.4338 178.294 37.4566C178.529 37.477 178.743 37.5678 178.936 37.7292C179.128 37.8905 179.248 38.079 179.295 38.2944C179.353 38.4951 179.308 38.6843 179.16 38.8622L178.247 39.9517C178.671 39.7769 179.135 39.6741 179.64 39.6431C180.145 39.6121 180.659 39.6765 181.181 39.8361C181.715 39.981 182.227 40.2582 182.716 40.6678L183.494 41.3195C183.657 41.456 183.735 41.6344 183.727 41.8547C183.734 42.0874 183.663 42.2927 183.514 42.4706C183.352 42.6632 183.157 42.7767 182.926 42.8108C182.723 42.8425 182.54 42.79 182.377 42.6535L181.599 42.0019C181.11 41.5923 180.524 41.3285 179.841 41.2105C179.173 41.1049 178.499 41.1714 177.82 41.4099C177.142 41.6484 176.517 42.1086 175.946 42.7904L171.347 48.2823C171.223 48.4305 171.037 48.5018 170.79 48.4963C170.557 48.5032 170.337 48.4197 170.129 48.2459Z" fill="white"/>
<path d="M163.199 42.8087C162.265 42.0268 161.584 41.1538 161.155 40.1899C160.742 39.2383 160.588 38.2775 160.694 37.3074C160.828 36.3349 161.248 35.4262 161.956 34.5813L164.022 32.1133C164.643 31.3722 165.407 30.8517 166.313 30.5519C167.233 30.2372 168.166 30.1614 169.114 30.3246C170.076 30.5002 170.943 30.9107 171.714 31.5561C172.455 32.1767 172.988 32.9255 173.312 33.8026C173.664 34.6773 173.778 35.5798 173.655 36.5103C173.531 37.4407 173.134 38.3062 172.464 39.1066C171.992 39.6698 171.555 39.9968 171.151 40.0874C170.747 40.1781 170.372 40.1289 170.026 39.9399C169.708 39.7486 169.385 39.5164 169.059 39.2433L164.034 35.0355L163.345 35.8582C162.6 36.7476 162.33 37.7185 162.532 38.771C162.735 39.8236 163.326 40.7594 164.304 41.5786C164.897 42.0751 165.419 42.3858 165.869 42.5106C166.319 42.6355 166.695 42.6983 166.997 42.699C167.314 42.7121 167.554 42.7869 167.717 42.9235C167.836 43.0228 167.902 43.1541 167.917 43.3175C167.958 43.4785 167.958 43.6295 167.916 43.7705C167.888 43.9239 167.837 44.0451 167.763 44.134C167.626 44.2971 167.325 44.3855 166.86 44.3992C166.394 44.413 165.835 44.2978 165.182 44.0536C164.542 43.7947 163.88 43.3797 163.199 42.8087ZM164.928 33.9683L169.375 37.692C169.819 38.0643 170.153 38.2681 170.376 38.3033C170.611 38.3237 170.859 38.1782 171.119 37.8669C171.516 37.3926 171.77 36.8486 171.881 36.235C172.003 35.6065 171.969 34.9851 171.777 34.3708C171.598 33.7416 171.234 33.1974 170.686 32.7381C170.182 32.3161 169.61 32.0511 168.969 31.9432C168.343 31.8476 167.736 31.8944 167.149 32.0836C166.562 32.2728 166.057 32.6194 165.635 33.1234L164.928 33.9683Z" fill="white"/>
<path d="M153.79 38.0955C153.589 38.026 153.428 37.9294 153.307 37.8058C153.186 37.6821 153.123 37.5377 153.119 37.3726L152.706 24.2807C152.682 24.2316 152.667 24.155 152.662 24.051C152.676 23.9533 152.692 23.877 152.711 23.8222C152.761 23.6761 152.864 23.558 153.017 23.468C153.19 23.3843 153.37 23.3344 153.56 23.3181C153.768 23.3082 153.945 23.3285 154.091 23.3791C154.238 23.4296 154.353 23.5104 154.437 23.6214C154.546 23.7204 154.603 23.8525 154.607 24.0177L154.813 35.1354L161.805 26.6293C161.892 26.4957 161.997 26.3991 162.12 26.3393C162.249 26.2613 162.414 26.257 162.615 26.3265C162.761 26.377 162.904 26.4673 163.043 26.5972C163.182 26.7272 163.294 26.8782 163.378 27.0504C163.468 27.2042 163.484 27.3634 163.427 27.5278C163.402 27.6009 163.364 27.68 163.315 27.765C163.271 27.8318 163.225 27.8771 163.175 27.901L154.763 37.9413C154.664 38.0502 154.52 38.1128 154.33 38.129C154.153 38.1698 153.972 38.1586 153.79 38.0955Z" fill="white"/>
<path d="M142.103 33.959C141.148 33.7122 140.331 33.2415 139.652 32.5468C138.978 31.8334 138.492 31.0089 138.195 30.0734C137.921 29.1241 137.905 28.1814 138.147 27.2455L138.931 24.2131C139.177 23.2585 139.636 22.4486 140.307 21.7833C141.002 21.1042 141.815 20.6254 142.746 20.3467C143.695 20.0729 144.656 20.0618 145.63 20.3133C146.584 20.56 147.401 21.0308 148.08 21.7255C148.783 22.4063 149.276 23.2027 149.559 24.1146C149.843 25.0266 149.856 25.9786 149.6 26.9706L148.816 30.003C148.579 30.9202 148.111 31.7277 147.412 32.4255C146.712 33.1233 145.885 33.6185 144.931 33.9111C144 34.1897 143.058 34.2057 142.103 33.959ZM142.538 32.2743C143.193 32.4436 143.827 32.4276 144.438 32.2261C145.054 32.0059 145.594 31.6561 146.057 31.1768C146.52 30.6975 146.832 30.149 146.991 29.5313L147.775 26.499C147.935 25.8813 147.926 25.2599 147.748 24.6348C147.588 24.0146 147.281 23.4658 146.825 22.9886C146.393 22.4975 145.849 22.1673 145.194 21.998C144.539 21.8286 143.904 21.8541 143.287 22.0743C142.676 22.2757 142.141 22.6068 141.683 23.0674C141.224 23.528 140.915 24.0671 140.756 24.6848L139.972 27.7172C139.812 28.3349 139.819 28.9656 139.992 29.6094C140.165 30.2532 140.468 30.8206 140.9 31.3117C141.356 31.789 141.902 32.1098 142.538 32.2743Z" fill="white"/>
<path d="M132.139 31.1352C130.866 31.0428 129.833 30.7255 129.038 30.1833C128.244 29.641 127.675 28.9406 127.33 28.0821C126.985 27.2235 126.851 26.2736 126.926 25.2324L127.149 22.1664C127.225 21.1252 127.485 20.204 127.931 19.4028C128.396 18.6031 129.061 17.9922 129.925 17.5704C130.808 17.1499 131.886 16.9858 133.159 17.0782C133.969 17.137 134.665 17.2941 135.247 17.5496C135.85 17.7873 136.305 18.0626 136.612 18.3756C136.938 18.69 137.092 18.9822 137.072 19.2522C137.062 19.3872 137.013 19.529 136.925 19.6777C136.857 19.8084 136.752 19.9171 136.61 20.0038C136.488 20.0918 136.349 20.1302 136.195 20.119C136.021 20.1064 135.825 20.0049 135.606 19.8146C135.408 19.6063 135.123 19.4015 134.75 19.1999C134.377 18.9984 133.833 18.8717 133.12 18.8199C131.867 18.729 130.888 18.9971 130.183 19.6244C129.499 20.2338 129.114 21.1267 129.029 22.3029L128.806 25.3688C128.721 26.5451 128.972 27.4937 129.559 28.2148C130.167 28.918 131.108 29.3158 132.38 29.4082C133.113 29.4614 133.688 29.4159 134.106 29.2717C134.525 29.1083 134.847 28.9475 135.071 28.7894C135.317 28.6133 135.536 28.5323 135.729 28.5463C135.902 28.5589 136.043 28.6176 136.152 28.7224C136.28 28.8287 136.368 28.9513 136.416 29.0905C136.483 29.2311 136.511 29.3785 136.5 29.5328C136.482 29.7835 136.288 30.0505 135.919 30.3338C135.551 30.5978 135.041 30.8128 134.389 30.9787C133.757 31.146 133.006 31.1982 132.139 31.1352Z" fill="white"/>
<path d="M119.528 30.4868C118.621 30.5522 117.813 30.4942 117.102 30.3129C116.41 30.1301 115.86 29.8984 115.453 29.6177C115.063 29.3163 114.857 29.021 114.836 28.7317C114.826 28.5968 114.846 28.4693 114.896 28.3495C114.944 28.2103 115.013 28.089 115.102 27.9857C115.211 27.8809 115.323 27.8244 115.439 27.816C115.651 27.8007 115.891 27.8997 116.158 28.1131C116.443 28.3057 116.826 28.501 117.305 28.6991C117.804 28.8957 118.487 28.9627 119.355 28.9001C120.454 28.8209 121.211 28.5628 121.625 28.1259C122.038 27.6696 122.225 27.1716 122.186 26.6316C122.14 25.9953 121.931 25.5161 121.559 25.194C121.205 24.8513 120.741 24.6036 120.168 24.4511C119.614 24.2972 119.023 24.1558 118.393 24.0267C117.783 23.8963 117.189 23.7259 116.612 23.5155C116.054 23.3038 115.584 22.979 115.204 22.5413C114.841 22.0828 114.632 21.4583 114.575 20.6677C114.53 20.0506 114.64 19.4321 114.906 18.812C115.171 18.192 115.617 17.6559 116.244 17.2036C116.889 16.75 117.762 16.4836 118.861 16.4043C119.497 16.3584 120.119 16.3814 120.727 16.4733C121.334 16.5652 121.83 16.7136 122.213 16.9186C122.614 17.1029 122.823 17.3204 122.841 17.5711C122.847 17.6482 122.817 17.7763 122.753 17.9554C122.706 18.1139 122.629 18.2551 122.521 18.3791C122.414 18.5032 122.283 18.5708 122.129 18.5819C121.975 18.593 121.758 18.5408 121.478 18.4253C121.218 18.3084 120.88 18.1971 120.465 18.0913C120.051 17.9855 119.564 17.9528 119.005 17.9931C118.31 18.0432 117.76 18.2088 117.354 18.4901C116.948 18.7714 116.661 19.0925 116.493 19.4535C116.325 19.8145 116.253 20.1589 116.277 20.4868C116.316 21.0267 116.519 21.4288 116.887 21.693C117.255 21.9572 117.716 22.1663 118.27 22.3202C118.842 22.4534 119.433 22.5852 120.043 22.7156C120.671 22.8254 121.266 23.0055 121.826 23.2558C122.407 23.5047 122.879 23.8777 123.245 24.3747C123.629 24.8703 123.853 25.552 123.915 26.4197C123.997 27.5574 123.658 28.4929 122.897 29.2263C122.135 29.9596 121.012 30.3798 119.528 30.4868Z" fill="white"/>
<path d="M109.38 13.71C109.035 13.7556 108.713 13.6813 108.415 13.4868C108.132 13.2706 107.97 12.9996 107.927 12.6738C107.883 12.348 107.971 12.0536 108.19 11.7906C108.428 11.5251 108.719 11.3695 109.064 11.3238C109.409 11.2781 109.722 11.3538 110.001 11.5508C110.281 11.7478 110.442 12.0092 110.485 12.335C110.528 12.6608 110.442 12.9648 110.226 13.2469C110.007 13.5099 109.725 13.6643 109.38 13.71ZM111.685 31.3369C111.436 31.3699 111.206 31.3224 110.994 31.1945C110.801 31.064 110.692 30.9029 110.666 30.7113L109.06 18.5792C109.029 18.3492 109.093 18.1653 109.25 18.0274C109.424 17.8679 109.635 17.7716 109.884 17.7386C110.153 17.7031 110.382 17.741 110.572 17.8523C110.779 17.9419 110.898 18.1017 110.928 18.3317L112.535 30.4638C112.56 30.6555 112.487 30.8406 112.316 31.0193C112.164 31.1955 111.954 31.3014 111.685 31.3369Z" fill="white"/>
<path d="M101.438 32.8984C100.556 33.0152 99.6897 32.8764 98.8379 32.4822C97.9836 32.0687 97.261 31.4721 96.6702 30.6923C96.0985 29.9099 95.7505 29.0491 95.6262 28.11L95.215 25.0051C95.083 24.0084 95.1937 23.0772 95.5471 22.2113C95.9171 21.3237 96.4633 20.5883 97.1856 20.0051C97.9054 19.4027 98.7349 19.0393 99.674 18.915C100.613 18.7906 101.429 18.9165 102.123 19.2928C102.833 19.6473 103.378 20.0821 103.758 20.5973L102.483 10.9664C102.452 10.7364 102.525 10.5512 102.702 10.4109C102.876 10.2513 103.087 10.1551 103.336 10.1221C103.624 10.084 103.853 10.1219 104.024 10.2357C104.212 10.3279 104.321 10.489 104.352 10.719L107.062 31.1882C107.088 31.3799 107.024 31.5638 106.872 31.74C106.739 31.9136 106.529 32.0195 106.241 32.0575C106.011 32.088 105.79 32.0393 105.578 31.9113C105.386 31.7808 105.276 31.6198 105.251 31.4281L105.084 30.1631C104.875 30.7954 104.435 31.3801 103.765 31.9174C103.115 32.4521 102.339 32.7791 101.438 32.8984ZM101.555 31.1278C102.245 31.0364 102.826 30.784 103.297 30.3704C103.786 29.9352 104.154 29.4769 104.402 28.9955C104.648 28.4949 104.752 28.1008 104.714 27.8133L104.185 23.8172C104.081 23.0314 103.821 22.393 103.404 21.9021C102.988 21.4111 102.493 21.0574 101.918 20.841C101.341 20.6054 100.765 20.5257 100.19 20.6018C99.5383 20.6881 98.9683 20.9489 98.4799 21.3841C97.9889 21.8002 97.6173 22.3077 97.3651 22.9066C97.1129 23.5056 97.0287 24.1213 97.1124 24.7538L97.5236 27.8587C97.6073 28.4912 97.8502 29.0733 98.2522 29.6052C98.6541 30.137 99.1476 30.5494 99.7324 30.8425C100.315 31.1165 100.922 31.2115 101.555 31.1278Z" fill="white"/>
<path d="M79.169 33.2247C78.2781 33.6472 77.3494 33.8096 76.3829 33.7117C75.4081 33.5964 74.5067 33.275 73.6788 32.7476C72.86 32.1944 72.2435 31.4812 71.8292 30.6078L70.487 27.778C70.0644 26.8871 69.8975 25.9713 69.9861 25.0305C70.084 24.064 70.4008 23.1755 70.9365 22.365C71.4896 21.5463 72.2204 20.9215 73.1287 20.4906C74.0196 20.0681 74.9483 19.9057 75.9148 20.0036C76.8906 20.0757 77.7795 20.3709 78.5817 20.8891C79.3838 21.4073 80.0045 22.1293 80.4436 23.0551L81.7859 25.8849C82.1919 26.7408 82.3501 27.6608 82.2605 28.6448C82.1709 29.6288 81.8537 30.5389 81.3088 31.3751C80.7731 32.1856 80.0599 32.8021 79.169 33.2247ZM78.4233 31.6526C79.0347 31.3626 79.5103 30.9443 79.8503 30.3979C80.182 29.834 80.372 29.2196 80.4204 28.5548C80.4687 27.8899 80.3562 27.2692 80.0828 26.6928L78.7405 23.863C78.4671 23.2865 78.0617 22.8155 77.5245 22.4498C77.0047 22.0758 76.417 21.8517 75.7613 21.7776C75.1148 21.6777 74.4858 21.7727 73.8744 22.0627C73.2631 22.3527 72.7915 22.7797 72.4599 23.3436C72.1199 23.89 71.9216 24.4869 71.8649 25.1343C71.8083 25.7818 71.9166 26.3937 72.1901 26.9701L73.5324 29.7999C73.8058 30.3763 74.2153 30.8562 74.7608 31.2393C75.3063 31.6225 75.9023 31.864 76.5489 31.9639C77.2046 32.0381 77.8294 31.9343 78.4233 31.6526Z" fill="white"/>
<path d="M73.6452 39.7587C72.3988 40.5727 71.2588 40.9132 70.2251 40.7801C69.1914 40.647 68.2676 39.9573 67.4535 38.7109L59.1123 25.9395C58.9854 25.7453 58.9712 25.5467 59.0696 25.3439C59.1737 25.1143 59.3147 24.9414 59.4928 24.8251C59.7032 24.6876 59.9264 24.6227 60.1622 24.6303C60.3875 24.6217 60.5636 24.7145 60.6905 24.9088L63.8621 29.7648L67.0185 27.7033C67.1803 27.5975 67.3521 27.5777 67.5338 27.6438C67.7155 27.7098 67.8645 27.8319 67.9808 28.01C68.0971 28.188 68.149 28.3735 68.1364 28.5664C68.1239 28.7594 68.0367 28.9087 67.8748 29.0144L64.7184 31.0759L69.0317 37.6801C69.5498 38.4733 70.0845 38.9207 70.6358 39.0224C71.1766 39.108 71.8679 38.8759 72.7096 38.3261L73.3894 37.8821C73.616 37.7341 73.8336 37.696 74.042 37.7676C74.2561 37.8125 74.4266 37.9321 74.5534 38.1264C74.6803 38.3206 74.7265 38.5329 74.6922 38.7631C74.674 38.9828 74.5516 39.1666 74.325 39.3147L73.6452 39.7587Z" fill="white"/>
<path d="M58.6543 56.009C58.5223 56.2229 58.3397 56.3714 58.1066 56.4547C57.8836 56.5215 57.6898 56.5042 57.5253 56.4026L41.3861 46.4409C41.1887 46.3191 41.0863 46.1537 41.079 45.9447C41.0654 45.7091 41.1246 45.4843 41.2566 45.2705C41.3886 45.0566 41.5579 44.9112 41.7644 44.8342C41.9545 44.747 42.1483 44.7644 42.3457 44.8862L43.4562 45.5717C43.1517 44.9975 42.9829 44.314 42.9498 43.5211C42.9002 42.718 43.1242 41.9134 43.6218 41.1072C44.1295 40.2847 44.8004 39.6763 45.6343 39.2823C46.4619 38.8616 47.3513 38.6722 48.3024 38.714C49.2473 38.7292 50.1475 39.0008 51.0029 39.5289L53.6681 41.1739C54.4743 41.6715 55.1123 42.3493 55.5824 43.2074C56.0625 44.0491 56.3216 44.936 56.3596 45.8683C56.3812 46.7904 56.1483 47.6463 55.6608 48.4359C55.1937 49.1927 54.5882 49.7505 53.8442 50.1092C53.1003 50.4679 52.387 50.6297 51.7043 50.5946L58.5154 54.7986C58.6799 54.9001 58.7772 55.0738 58.8073 55.3195C58.8475 55.5488 58.7965 55.7787 58.6543 56.009ZM53.9974 47.8182C54.3325 47.2753 54.4941 46.6821 54.4823 46.0386C54.4541 45.3851 54.2795 44.7661 53.9586 44.1818C53.6478 43.581 53.221 43.1131 52.6781 42.778L50.0129 41.1329C49.47 40.7978 48.8686 40.6311 48.2087 40.6327C47.5589 40.6179 46.9438 40.7495 46.3634 41.0273C45.7665 41.295 45.2903 41.7168 44.9349 42.2926C44.6303 42.7862 44.4674 43.3445 44.4463 43.9676C44.4189 44.5642 44.5441 45.1526 44.822 45.7331C45.0999 46.3136 45.576 46.812 46.2506 47.2283L49.6808 49.3456C49.9275 49.4979 50.3296 49.5643 50.8869 49.5448C51.4278 49.5151 51.9967 49.3664 52.5936 49.0987C53.174 48.8208 53.642 48.394 53.9974 47.8182Z" fill="white"/>
<path d="M47.5209 61.6257C46.9421 62.5634 46.1864 63.1989 45.2538 63.532C44.3148 63.8385 43.2942 63.6516 42.192 62.9712C41.2871 62.4127 40.7434 61.7477 40.5608 60.9761C40.3718 60.1779 40.4509 59.2952 40.798 58.328C41.1388 57.3342 41.6595 56.2697 42.3602 55.1345L43.137 53.876L42.5694 53.5256C42.0265 53.1905 41.4391 52.9643 40.8072 52.8469C40.1691 52.7029 39.5535 52.7433 38.9604 52.9679C38.3611 53.166 37.838 53.627 37.3912 54.3508C37.0561 54.8937 36.8395 55.3735 36.7414 55.79C36.6433 56.2066 36.5992 56.5542 36.6089 56.8329C36.6022 57.1014 36.5583 57.3015 36.477 57.4331C36.3552 57.6305 36.1549 57.7341 35.8762 57.7438C35.6077 57.7371 35.3912 57.683 35.2267 57.5815C34.9964 57.4393 34.8974 57.1396 34.9296 56.6824C34.9455 56.2151 35.0532 55.6909 35.2528 55.1098C35.4462 54.5021 35.7002 53.9433 36.015 53.4333C36.6954 52.331 37.4639 51.6012 38.3206 51.2439C39.171 50.86 40.0444 50.7516 40.9409 50.9188C41.8476 51.0694 42.7122 51.3986 43.5348 51.9064L49.951 55.8667C50.132 55.9784 50.2426 56.1489 50.2828 56.3782C50.3167 56.5809 50.2575 56.8056 50.1052 57.0524C49.9833 57.2498 49.8141 57.3952 49.5973 57.4887C49.3743 57.5555 49.1724 57.5331 48.9914 57.4214L47.9056 56.7512C48.1453 57.4671 48.2747 58.2513 48.2938 59.1037C48.2964 59.946 48.0388 60.7866 47.5209 61.6257ZM46.4074 60.3931C46.7425 59.8502 46.9225 59.2456 46.9475 58.5794C46.9724 57.9132 46.884 57.302 46.6821 56.7457C46.4739 56.1628 46.1888 55.7597 45.8269 55.5363L44.2475 54.5614L43.6077 55.5979C43.1508 56.3382 42.7635 57.0761 42.4459 57.8115C42.1219 58.5204 41.976 59.1801 42.0081 59.7906C42.0504 60.3847 42.3923 60.8797 43.034 61.2758C43.7414 61.7124 44.3866 61.8266 44.9695 61.6184C45.5625 61.3938 46.0418 60.9853 46.4074 60.3931Z" fill="white"/>
<path d="M43.6469 67.5138C42.865 68.7806 41.978 69.5736 40.9858 69.8927C39.9937 70.2118 38.8642 69.9804 37.5974 69.1985L24.6169 61.1865C24.4195 61.0646 24.3222 60.891 24.3251 60.6655C24.3216 60.4135 24.3757 60.1969 24.4874 60.016C24.6194 59.8021 24.7938 59.6485 25.0105 59.555C25.2108 59.4514 25.4096 59.4606 25.607 59.5824L30.5426 62.6288L32.5227 59.4207C32.6243 59.2562 32.7713 59.1652 32.9638 59.1477C33.1564 59.1302 33.3431 59.1774 33.5241 59.2891C33.7051 59.4008 33.8309 59.5466 33.9016 59.7265C33.9723 59.9065 33.9568 60.0787 33.8553 60.2432L31.8751 63.4513L38.5875 67.5944C39.3936 68.092 40.0678 68.2696 40.6101 68.1272C41.1359 67.9746 41.6629 67.4706 42.1909 66.6151L42.6174 65.9242C42.7596 65.6938 42.9402 65.5668 43.1594 65.543C43.3722 65.4926 43.5774 65.5284 43.7748 65.6502C43.9722 65.7721 44.1043 65.9445 44.1712 66.1675C44.2481 66.3741 44.2156 66.5925 44.0734 66.8228L43.6469 67.5138Z" fill="white"/>
</svg>
