<svg width="119" height="119" viewBox="0 0 119 119" fill="none" xmlns="http://www.w3.org/2000/svg">
<path d="M59.5 119C92.3618 119 119 92.3618 119 59.5C119 26.6381 92.3618 -8.59944e-07 59.5 -5.53981e-07C26.6382 -2.48017e-07 2.35201e-08 26.6382 5.25353e-08 59.5C8.15506e-08 92.3618 26.6382 119 59.5 119ZM59.5 107.1L59.5 11.9C72.1243 11.9 84.2316 16.915 93.1583 25.8417C102.085 34.7684 107.1 46.8757 107.1 59.5C107.1 72.1243 102.085 84.2316 93.1583 93.1583C84.2316 102.085 72.1243 107.1 59.5 107.1Z" fill="white"/>
</svg>
