<svg width="132" height="132" viewBox="0 0 132 132" fill="none" xmlns="http://www.w3.org/2000/svg">
<g clip-path="url(#clip0_640_1266)">
<path fill-rule="evenodd" clip-rule="evenodd" d="M41.011 5.44165C52.1108 0.63162 64.319 -1.03524 76.3019 0.623186C88.2848 2.28161 99.5812 7.20153 108.958 14.8454C118.332 22.4881 125.427 32.5599 129.465 43.9607C132.005 51.1048 130.876 59.2872 126.495 65.476C122.115 71.6628 114.777 75.4474 107.197 75.4286L89.5589 75.4286C86.1922 75.4192 82.9327 76.6113 80.3662 78.7903C77.7999 80.9694 76.0949 83.9923 75.558 87.316C75.0211 90.6396 75.6875 94.0458 77.4373 96.9219C79.1871 99.7986 81.9055 101.956 85.1039 103.007C85.161 103.026 85.2178 103.046 85.2742 103.067C90.4606 104.994 94.0882 109.684 94.437 115.189C95.1978 121.513 91.0722 127.83 84.9124 129.56C79.1572 131.195 73.2015 132.016 67.2186 132C55.1234 131.993 43.2625 128.663 32.9314 122.373C12.0612 109.667 -0.273514 85.8264 1.41079 61.4504C3.09509 37.0746 18.5916 15.1571 41.011 5.44165ZM42.429 66C50.2399 66 56.5718 59.6681 56.5718 51.8571C56.5718 44.0462 50.2399 37.7143 42.429 37.7143C34.6181 37.7143 28.2861 44.0462 28.2861 51.8571C28.2861 59.6681 34.6181 66 42.429 66ZM98.9994 37.7189C98.9994 45.5298 92.6673 51.8618 84.8564 51.8618C77.0455 51.8618 70.7135 45.5298 70.7135 37.7189C70.7135 29.908 77.0455 23.576 84.8564 23.576C92.6673 23.576 98.9994 29.908 98.9994 37.7189ZM42.4278 98.9953C47.635 98.9953 51.8564 94.7741 51.8564 89.5668C51.8564 84.3596 47.635 80.1382 42.4278 80.1382C37.2205 80.1382 32.9993 84.3596 32.9993 89.5668C32.9993 94.7741 37.2205 98.9953 42.4278 98.9953Z" fill="white"/>
</g>
<defs>
<clipPath id="clip0_640_1266">
<rect width="132" height="132" fill="white"/>
</clipPath>
</defs>
</svg>
