<svg width="22" height="22" viewBox="0 0 22 22" fill="none" xmlns="http://www.w3.org/2000/svg">
<path d="M10.8835 21C16.342 21 20.767 16.5228 20.767 11C20.767 5.47715 16.342 1 10.8835 1C5.42498 1 1 5.47715 1 11C1 16.5228 5.42498 21 10.8835 21Z" stroke="white" stroke-width="2"/>
<path d="M12.8596 6C12.8596 6.53043 12.6514 7.03914 12.2807 7.41421C11.91 7.78929 11.4072 8 10.8829 8C10.3587 8 9.85591 7.78929 9.48521 7.41421C9.11451 7.03914 8.90625 6.53043 8.90625 6C8.90625 5.46957 9.11451 4.96086 9.48521 4.58579C9.85591 4.21071 10.3587 4 10.8829 4C11.4072 4 11.91 4.21071 12.2807 4.58579C12.6514 4.96086 12.8596 5.46957 12.8596 6Z" stroke="white" stroke-width="2"/>
<path d="M16.8133 9C16.8133 9 13.3175 10.5 10.8832 10.5C8.44891 10.5 4.95312 9 4.95312 9M10.8832 11V12.452M10.8832 12.452C10.8829 13.0275 11.0462 13.5909 11.3537 14.075L13.8483 18M10.8832 12.452C10.8835 13.0275 10.7202 13.5909 10.4128 14.075L7.91817 18" stroke="white" stroke-width="2" stroke-linecap="round"/>
</svg>
