<svg width="1178" height="122" viewBox="0 0 1178 122" fill="none" xmlns="http://www.w3.org/2000/svg">
<g filter="url(#filter0_d_27_1486)">
<path d="M4 20C4 8.95432 12.9543 1.32414e-05 24 1.32414e-05H299.913C299.913 1.32414e-05 299.913 1.32414e-05 299.913 1.32414e-05C299.913 1.32415e-05 450.55 8.97738e-05 477.85 8.97738e-05C505.15 8.97738e-05 525.775 8.97738e-05 595 8.97738e-05C664.225 8.97738e-05 664.463 2.97932e-05 702 0C739.537 -2.97932e-05 878.575 1.32414e-05 878.575 1.32414e-05H1154C1165.05 1.32414e-05 1174 8.95432 1174 20V94C1174 105.046 1165.05 114 1154 114H24C12.9543 114 4 105.046 4 94V20Z" fill="white" fill-opacity="0.2" shape-rendering="crispEdges"/>
<path d="M299.94 0.500013L300.022 0.500013L300.345 0.500013L301.611 0.500014L306.439 0.500017L323.876 0.500025L378.644 0.500051L477.85 0.50009H478.01H478.17H478.329H478.489H478.648H478.807H478.966H479.125H479.284H479.442H479.601H479.759H479.917H480.076H480.234H480.392H480.549H480.707H480.865H481.022H481.179H481.337H481.494H481.651H481.808H481.965H482.121H482.278H482.435H482.591H482.748H482.904H483.06H483.217H483.373H483.529H483.685H483.841H483.997H484.153H484.308H484.464H484.62H484.775H484.931H485.087H485.242H485.398H485.553H485.709H485.864H486.019H486.175H486.33H486.485H486.641H486.796H486.951H487.106H487.262H487.417H487.572H487.727H487.883H488.038H488.193H488.348H488.504H488.659H488.814H488.97H489.125H489.28H489.436H489.591H489.747H489.902H490.058H490.213H490.369H490.525H490.68H490.836H490.992H491.148H491.304H491.46H491.616H491.772H491.928H492.084H492.241H492.397H492.553H492.71H492.867H493.023H493.18H493.337H493.494H493.651H493.808H493.966H494.123H494.28H494.438H494.596H494.754H494.911H495.07H495.228H495.386H495.544H495.703H495.862H496.02H496.179H496.338H496.498H496.657H496.816H496.976H497.136H497.296H497.456H497.616H497.777H497.937H498.098H498.259H498.42H498.581H498.742H498.904H499.066H499.228H499.39H499.552H499.715H499.877H500.04H500.203H500.367H500.53H500.694H500.858H501.022H501.186H501.351H501.515H501.68H501.845H502.011H502.176H502.342H502.508H502.675H502.841H503.008H503.175H503.342H503.51H503.678H503.846H504.014H504.182H504.351H504.52H504.689H504.859H505.029H505.199H505.369H505.54H505.711H505.882H506.054H506.225H506.397H506.57H506.742H506.915H507.089H507.262H507.436H507.61H507.784H507.959H508.134H508.31H508.485H508.661H508.838H509.014H509.191H509.369H509.546H509.724H509.903H510.081H510.26H510.44H510.619H510.799H510.98H511.16H511.342H511.523H511.705H511.887H512.07H512.252H512.436H512.619H512.803H512.988H513.173H513.358H513.543H513.729H513.916H514.102H514.29H514.477H514.665H514.853H515.042H515.231H515.421H515.611H515.801H515.992H516.183H516.375H516.567H516.759H516.952H517.146H517.34H517.534H517.728H517.924H518.119H518.315H518.512H518.708H518.906H519.104H519.302H519.501H519.7H519.9H520.1H520.3H520.502H520.703H520.905H521.108H521.311H521.514H521.718H521.923H522.128H522.333H522.539H522.746H522.953H523.16H523.368H523.577H523.786H523.995H524.205H524.416H524.627H524.839H525.051H525.264H525.477H525.691H525.905H526.12H526.335H526.551H526.768H526.985H527.202H527.42H527.639H527.858H528.078H528.299H528.52H528.741H528.963H529.186H529.409H529.633H529.858H530.083H530.308H530.534H530.761H530.989H531.217H531.445H531.674H531.904H532.135H532.366H532.597H532.83H533.062H533.296H533.53H533.765H534H534.236H534.473H534.71H534.948H535.187H535.426H535.666H535.906H536.147H536.389H536.631H536.875H537.118H537.363H537.608H537.854H538.1H538.347H538.595H538.843H539.092H539.342H539.593H539.844H540.096H540.348H540.602H540.856H541.11H541.366H541.622H541.878H542.136H542.394H542.653H542.913H543.173H543.434H543.696H543.958H544.222H544.486H544.75H545.016H545.282H545.549H545.817H546.085H546.354H546.624H546.895H547.166H547.438H547.711H547.985H548.259H548.535H548.811H549.088H549.365H549.643H549.923H550.203H550.483H550.765H551.047H551.33H551.614H551.899H552.184H552.47H552.757H553.045H553.334H553.624H553.914H554.205H554.497H554.79H555.083H555.378H555.673H555.969H556.266H556.564H556.863H557.162H557.462H557.764H558.066H558.368H558.672H558.977H559.282H559.589H559.896H560.204H560.513H560.822H561.133H561.445H561.757H562.07H562.384H562.7H563.015H563.332H563.65H563.969H564.288H564.609H564.93H565.252H565.575H565.899H566.224H566.55H566.877H567.205H567.534H567.863H568.194H568.525H568.858H569.191H569.525H569.86H570.197H570.534H570.872H571.211H571.551H571.892H572.234H572.576H572.92H573.265H573.611H573.957H574.305H574.654H575.003H575.354H575.706H576.058H576.412H576.766H577.122H577.479H577.836H578.195H578.554H578.915H579.276H579.639H580.003H580.367H580.733H581.099H581.467H581.836H582.206H582.576H582.948H583.321H583.695H584.07H584.446H584.823H585.201H585.58H585.96H586.341H586.724H587.107H587.491H587.877H588.263H588.651H589.04H589.429H589.82H590.212H590.605H590.999H591.394H591.79H592.188H592.586H592.986H593.386H593.788H594.191H594.595H595L702 0.5L804.364 0.499995L856.264 0.500007L872.527 0.500011L877.004 0.500013L878.175 0.500013L878.474 0.500013H878.55H878.569H878.573C878.574 0.500013 878.575 0.500013 878.575 1.32414e-05V0.500013H1154C1164.77 0.500013 1173.5 9.23046 1173.5 20V94C1173.5 104.77 1164.77 113.5 1154 113.5H24C13.2304 113.5 4.5 104.77 4.5 94V20C4.5 9.23046 13.2304 0.500013 24 0.500013H299.913H299.914H299.919H299.94Z" stroke="white" stroke-opacity="0.2" shape-rendering="crispEdges"/>
</g>
<defs>
<filter id="filter0_d_27_1486" x="0" y="0" width="1178" height="122" filterUnits="userSpaceOnUse" color-interpolation-filters="sRGB">
<feFlood flood-opacity="0" result="BackgroundImageFix"/>
<feColorMatrix in="SourceAlpha" type="matrix" values="0 0 0 0 0 0 0 0 0 0 0 0 0 0 0 0 0 0 127 0" result="hardAlpha"/>
<feOffset dy="4"/>
<feGaussianBlur stdDeviation="2"/>
<feComposite in2="hardAlpha" operator="out"/>
<feColorMatrix type="matrix" values="0 0 0 0 0 0 0 0 0 0 0 0 0 0 0 0 0 0 0.25 0"/>
<feBlend mode="normal" in2="BackgroundImageFix" result="effect1_dropShadow_27_1486"/>
<feBlend mode="normal" in="SourceGraphic" in2="effect1_dropShadow_27_1486" result="shape"/>
</filter>
</defs>
</svg>
